# xmcd CD database file
#
# Track frame offsets:
#	150
#	13640
#	28980
#	43945
#	56900
#	69541
#	83239
#	96606
#	109710
#	123252
#	137196
#	151617
#	164945
#	180016
#	192409
#	208501
#	222263
#	236949
#	248088
#	262924
#
# Disc length: 3707 seconds
#
# Revision: 0
# Processed by: cddbd v1.5.2PL0 Copyright (c) Steve Scherf et al.
# Submitted via: CDex 1.51
#
DISCID=260e7914
DTITLE=Sarah Vaughan - The Primo Collection
DYEAR=2011
DGENRE=Jazz
TTITLE0=I'll Wait and Pray
TTITLE1=Loverman
TTITLE2=Time and Again
TTITLE3=If You Could See Me Now
TTITLE4=The Man I Love
TTITLE5=Don't Blame Me
TTITLE6=Body and Soul
TTITLE7=Everything I Have is Yours
TTITLE8=I've Got a Crush on You
TTITLE9=Tenderly
TTITLE10=It's Magic
TTITLE11=Nature Boy
TTITLE12=Black Coffee
TTITLE13=Make Believe
TTITLE14=That Lucky Old Sun
TTITLE15=I'm Crazy to Love You
TTITLE16=Summertime
TTITLE17=I Cried For You
TTITLE18=Our Very Own
TTITLE19=The Nearness of You
EXTD=YEAR: 2011
EXTT0=
EXTT1=
EXTT2=
EXTT3=
EXTT4=
EXTT5=
EXTT6=
EXTT7=
EXTT8=
EXTT9=
EXTT10=
EXTT11=
EXTT12=
EXTT13=
EXTT14=
EXTT15=
EXTT16=
EXTT17=
EXTT18=
EXTT19=
PLAYORDER=
